<svg width="42" height="42" viewBox="0 0 42 42" fill="none" xmlns="http://www.w3.org/2000/svg">
<g clip-path="url(#clip0)">
<path d="M24.8479 21.0343L41.2018 4.67979C42.2661 3.616 42.2661 1.896 41.2018 0.832205C40.1381 -0.231585 38.4181 -0.231585 37.3543 0.832205L20.9998 17.1867L4.6458 0.832205C3.58151 -0.231585 1.86201 -0.231585 0.798217 0.832205C-0.266072 1.896 -0.266072 3.616 0.798217 4.67979L17.1522 21.0343L0.798217 37.3887C-0.266072 38.4525 -0.266072 40.1725 0.798217 41.2363C1.32837 41.767 2.02544 42.0335 2.72201 42.0335C3.41858 42.0335 4.11515 41.767 4.6458 41.2363L20.9998 24.8818L37.3543 41.2363C37.8849 41.767 38.5815 42.0335 39.2781 42.0335C39.9746 42.0335 40.6712 41.767 41.2018 41.2363C42.2661 40.1725 42.2661 38.4525 41.2018 37.3887L24.8479 21.0343Z" fill="#C4C4C4"/>
</g>
<defs>
<clipPath id="clip0">
<rect width="42" height="42" fill="white"/>
</clipPath>
</defs>
</svg>
