<svg id="_x33_0" enable-background="new 0 0 64 64" height="512" viewBox="0 0 64 64" width="512" xmlns="http://www.w3.org/2000/svg"><g><g><g><path d="m58 22v4h-35-9.3-7.7v-4h4 14 16 14z" fill="#aab2bd"/></g><g><path d="m62 5v57h-4v-14-22-4-17c0-.55.45-1 1-1h2c.55 0 1 .45 1 1z" fill="#aab2bd"/></g><g><path d="m6 5v57h-4v-14-22-4-17c0-.55.45-1 1-1h2c.55 0 1 .45 1 1z" fill="#aab2bd"/></g><g><path d="m40 48v14h-4v-16h4z" fill="#ccd1d9"/></g><g><path d="m36 46v16h-8l-.19-1.9c-.27-2.71-1.72-5.03-3.81-6.48v-.01-7.61h6z" fill="#e6e9ed"/></g><g><path d="m40 48h18v14h-18z" fill="#d3a06c"/></g><g><path d="m30 32v14h10v2h14v-16z" fill="#d3a06c"/></g><g><path d="m30 2v8h-6v12h-14v-20h6v4h4 4v-4z" fill="#d3a06c"/></g><g><path d="m54 2v20h-14v-12h-6v-8h6v4h4 4v-4z" fill="#d3a06c"/></g><g><path d="m24 10h16v12h-16z" fill="#cf9e76"/></g><g><path d="m30 10h4v4h-4z" fill="#dfb28b"/></g><g><path d="m46 48h6v6h-6z" fill="#b27946"/></g><g><path d="m38 32h8v4h-8z" fill="#b27946"/></g><g><path d="m40 2h8v4h-8z" fill="#b27946"/></g><g><path d="m16 2h8v4h-8z" fill="#b27946"/></g><g><path d="m22 62h-14-6l.19-1.9c.46-4.6 4.33-8.1 8.95-8.1h.86 6 .86c1.9 0 3.68.6 5.14 1.61v.01c2.09 1.45 3.54 3.77 3.81 6.48l.19 1.9z" fill="#b4dd7f"/></g><g><path d="m6.93 37.15c-.61-1.04-.93-2.24-.93-3.45 0-1.75.6-3.44 1.69-4.81 1.46-1.83 3.67-2.89 6.01-2.89h9.3c.55 0 1 .45 1 1v2c0 1.43-.6 2.71-1.59 3.63-.92.85-2.18 1.37-3.62 1.37h-2.68c-.48 0-.96-.15-1.33-.44l-.01.01-.77 4.43c-1.1 0-2 .9-2 2 0 .64.25 1.25.71 1.71l1.29 1.29v.76c0 1.37-.77 2.63-2 3.24l-2.76-1.38c-1.99-.99-3.24-3.02-3.24-5.24 0-.91.21-1.8.62-2.62z" fill="#656d78"/></g><g><path d="m14.78 33.56c.37.29.85.44 1.33.44h2.68c1.44 0 2.7-.52 3.62-1.37l.01.01c.83 1.36 2.58 4.36 3.58 8.36l-2 1v1c0 2.76-2.24 5-5 5h-1v4h-6v-5c1.23-.61 2-1.87 2-3.24v-.76l-1.29-1.29c-.46-.46-.71-1.07-.71-1.71 0-1.1.9-2 2-2l.77-4.43z" fill="#f0d0b4"/></g></g><g><path d="m61 3h-2c-1.103 0-2 .897-2 2v16h-2v-20h-22v8h-2v-8h-22v20h-2v-16c0-1.103-.897-2-2-2h-2c-1.103 0-2 .897-2 2v58h62v-58c0-1.103-.897-2-2-2zm-20 0h2v2h-2zm4 0h2v2h-2zm-10 0h4v4h10v-4h4v18h-12v-12h-6zm0 8h4v10h-14v-10h4v4h6zm-2 0v2h-2v-2zm-16-8h2v2h-2zm4 0h2v2h-2zm-10 0h4v4h10v-4h4v6h-6v12h-12zm46 20v2h-50v-2zm-36 36v2h-12v-2h-2v2h-3.895l.08-.796c.41-4.107 3.833-7.204 7.96-7.204h7.71c4.127 0 7.55 3.097 7.96 7.204l.08.796h-3.895v-2zm-14-32h1.161c-.418.347-.807.734-1.161 1.162zm.15 12.2 1.05 1.4 1.6-1.2-1.621-2.161c-.761-1.013-1.179-2.27-1.179-3.538 0-1.516.521-3.002 1.468-4.186 1.28-1.598 3.187-2.515 5.234-2.515h9.298v2c0 2.243-1.85 4-4.21 4h-2.683c-.493 0-.936-.278-1.053-.662-.14-.454.028-.778.141-.931.191-.259.484-.407.805-.407h1v-2h-1c-.948 0-1.851.456-2.414 1.219-.573.775-.735 1.762-.445 2.706.113.368.31.697.557.985l-.561 3.216c-1.235.372-2.137 1.52-2.137 2.874 0 .911.355 1.769 1 2.414l1 1v.35c0 .839-.392 1.606-1.046 2.095l-2.271-1.135c-1.655-.828-2.683-2.493-2.683-4.342 0-.398.053-.796.15-1.182zm11.85 11.807v-2.007c1.538 0 2.937-.586 4-1.54v4.441c-1.224-.555-2.575-.874-4-.894zm4-8.007c0 2.206-1.794 4-4 4h-2v4h-4v-3.432c1.247-.854 2-2.261 2-3.805v-1.178l-1.585-1.585c-.268-.268-.415-.622-.415-1 0-.552.449-1 1-1h.841l.707-4.052c.182.032.368.052.558.052h2.683c1.234 0 2.369-.336 3.326-.913.75 1.311 1.906 3.555 2.708 6.383l-1.823.912zm5.806 17.005c-.034-.341-.087-.676-.154-1.005h4.348v-2h-4.982c-.671-1.548-1.714-2.882-3.018-3.896v-6.104h10v14h-6.095zm8.194-13.005h2v14h-2zm-6-2v-12h6v4h10v-4h6v14h-12v-2zm14-12v2h-2v-2zm-4 2h-2v-2h2zm6 14h4v4h-4zm-18-18v14h-4.35c.223-.627.35-1.298.35-2v-.382l2.165-1.082-.194-.778c-.926-3.702-2.471-6.566-3.312-7.997.84-1.023 1.341-2.324 1.341-3.761v-2h32v20h-2v-16zm-24-26v28.701c0 1.193.291 2.373.81 3.443l-.086.172c-.474.948-.724 2.007-.724 3.066 0 2.612 1.452 4.961 3.789 6.131l2.211 1.105v3.389c-3.295.047-6.21 1.673-8 4.191v-50.198zm36 56v-12h4v6h8v-6h4v12zm20 0h-2v-56h2z"/><path d="m27 49h6v2h-6z"/><path d="m27 53h6v2h-6z"/></g></g></svg>